<svg xmlns="http://www.w3.org/2000/svg" width="36" height="36.002" viewBox="0 0 36 36.002">
  <path id="friends" d="M36,20.6a.851.851,0,0,1-.3.633,2.376,2.376,0,0,1-.914.475q-.615.194-1.266.334a13.975,13.975,0,0,1-1.652.229q-1,.089-1.758.123t-1.916.07q-1.159.036-1.775.035H20.25V18h-.035a6.542,6.542,0,0,0-.633-2.813,14.246,14.246,0,0,1,1.793-.352v-1.09Q18,11.706,18,5.307a4.556,4.556,0,0,1,1.881-3.973A8.21,8.21,0,0,1,24.75,0a8.239,8.239,0,0,1,4.869,1.336A4.553,4.553,0,0,1,31.5,5.309q0,6.645-3.375,8.543v.984a13.14,13.14,0,0,1,5.695,1.969A4.54,4.54,0,0,1,36,20.6Zm-21.375,6.75v.984a13,13,0,0,1,5.695,1.986A4.556,4.556,0,0,1,22.5,34.1a.851.851,0,0,1-.3.633,2.376,2.376,0,0,1-.914.475q-.615.194-1.266.334a13.975,13.975,0,0,1-1.652.229q-1,.089-1.758.141t-1.916.07Q13.536,36,12.92,36H9.58L7.8,35.984l-1.916-.07-1.758-.141-1.652-.229L1.213,35.21.3,34.735,0,34.1a4.552,4.552,0,0,1,2.18-3.779,13.01,13.01,0,0,1,5.695-1.987v-1.09Q4.5,25.207,4.5,18.808a4.556,4.556,0,0,1,1.881-3.973A8.215,8.215,0,0,1,11.25,13.5a8.229,8.229,0,0,1,4.869,1.336A4.555,4.555,0,0,1,18,18.809q0,6.645-3.375,8.543Z" fill="#fff"/>
</svg>
