<svg xmlns="http://www.w3.org/2000/svg" width="25" height="26.297" viewBox="0 0 25 26.297">
  <defs>
    <style>
      .cls-1 {
        fill: #fff;
      }
    </style>
  </defs>
  <path id="home" class="cls-1" d="M26.673,12.438,15.591,2.243a1.9,1.9,0,0,0-2.626.055L2.773,12.49l-.523.523V28.038h9.821V18.663h5.357v9.375H27.25V12.969ZM14.306,3.528c.016,0,.006,0,0,.01S14.29,3.528,14.306,3.528ZM25.464,26.252h-6.25V18.663a1.786,1.786,0,0,0-1.786-1.786H12.071a1.786,1.786,0,0,0-1.786,1.786v7.59H4.036v-12.5L14.306,3.56l0,0L25.464,13.752Z" transform="translate(-2.25 -1.742)"/>
</svg>
