<svg xmlns="http://www.w3.org/2000/svg" width="27" height="21.486" viewBox="0 0 27 21.486">
  <g id="mail" transform="translate(-4.5 -7.257)">
    <path id="Path_11" data-name="Path 11" d="M4.515,8.757a1.5,1.5,0,0,1,1.5-1.5H30a1.5,1.5,0,0,1,1.5,1.5V25.743a3,3,0,0,1-3,3H7.5a3,3,0,0,1-3-3V9.243a1.452,1.452,0,0,1,.015-.21ZM7.5,12.093v13.65h21V12.093l-7.318,7.318a4.5,4.5,0,0,1-6.363,0L7.5,12.09Zm2.358-1.884H26.142l-7.08,7.08a1.5,1.5,0,0,1-2.123,0l-7.08-7.08Z" fill="#fff" fill-rule="evenodd"/>
  </g>
</svg>
