<svg id="sun" xmlns="http://www.w3.org/2000/svg" width="36" height="36" viewBox="0 0 36 36">
  <path id="Path_9" data-name="Path 9" d="M18,24a6,6,0,1,0-6-6A6,6,0,0,0,18,24Zm0,3a9,9,0,1,0-9-9A9,9,0,0,0,18,27Z" fill="#fff" fill-rule="evenodd"/>
  <path id="Path_10" data-name="Path 10" d="M16.5,0h3V6.093a12.119,12.119,0,0,0-3,0ZM10.641,8.52,6.333,4.212,4.212,6.333,8.52,10.641A12.072,12.072,0,0,1,10.641,8.52ZM6.093,16.5H0v3H6.093a12.119,12.119,0,0,1,0-3ZM8.52,25.359,4.212,29.667l2.121,2.121,4.308-4.308A12.072,12.072,0,0,1,8.52,25.359Zm7.98,4.548V36h3V29.907a12.1,12.1,0,0,1-3,0Zm8.859-2.427,4.308,4.308,2.121-2.121L27.48,25.359a12.072,12.072,0,0,1-2.121,2.121Zm4.548-7.98H36v-3H29.907a12.1,12.1,0,0,1,0,3ZM27.48,10.641l4.308-4.308L29.667,4.212,25.359,8.52a12.1,12.1,0,0,1,2.121,2.121Z" fill="#fff" fill-rule="evenodd"/>
</svg>
