<svg xmlns="http://www.w3.org/2000/svg" width="36" height="36" viewBox="0 0 36 36">
  <path id="algorhythm" d="M35.684,19.863,31.5,24.047v8.578a1.141,1.141,0,0,1-1.125,1.125H16.91a7.56,7.56,0,0,1-2.848,1.635A12.067,12.067,0,0,1,10.125,36a11.044,11.044,0,0,1-5.572-1.318q-2.3-1.318-2.3-3.182a3.532,3.532,0,0,1,1.934-2.936A10.388,10.388,0,0,1,9,27.07V22.5H2.25a2.162,2.162,0,0,1-1.582-.668A2.162,2.162,0,0,1,0,20.25v-4.5a2.147,2.147,0,0,1,.668-1.6A2.187,2.187,0,0,1,2.25,13.5H9V8.93A10.383,10.383,0,0,1,4.184,7.436,3.534,3.534,0,0,1,2.25,4.5q0-1.863,2.3-3.182A11.034,11.034,0,0,1,10.125,0,11.061,11.061,0,0,1,15.7,1.318Q18,2.635,18,4.5a3.532,3.532,0,0,1-1.934,2.936A10.388,10.388,0,0,1,11.25,8.93V13.5H18a2.22,2.22,0,0,1,2.25,2.25V18h5.133L29.6,13.781a1.062,1.062,0,0,1,1.512,0l4.57,4.57a1.062,1.062,0,0,1,0,1.512ZM18,22.5H11.25v4.57a10.383,10.383,0,0,1,4.816,1.494A3.534,3.534,0,0,1,18,31.5H29.25V24.082L25.418,20.25H20.25a2.192,2.192,0,0,1-.65,1.582A2.145,2.145,0,0,1,18,22.5Z" fill="#707070"/>
</svg>
