<svg xmlns="http://www.w3.org/2000/svg" width="36" height="24.689" viewBox="0 0 36 24.689">
  <path id="group" d="M17.9,5.655c-3.1,0-5.614,2.934-5.614,6.554A6.764,6.764,0,0,0,15.275,18l-2.059.954L7.738,21.495a1.387,1.387,0,0,0-.793,1.348v6.033a1.4,1.4,0,0,0,1.23,1.469H27.663a1.393,1.393,0,0,0,1.27-1.469V22.843a1.386,1.386,0,0,0-.793-1.348l-5.28-2.541-2.194-1.039a6.8,6.8,0,0,0,2.852-5.706c0-3.62-2.513-6.554-5.614-6.554ZM8.85,7.96A4.333,4.333,0,0,0,5.655,9.508a5.994,5.994,0,0,0-1.33,3.731,5.672,5.672,0,0,0,2.461,4.723L.635,20.82A1.046,1.046,0,0,0,0,21.931v4.842c.033.642.366,1.182.992,1.191H5.081V22.843a3.335,3.335,0,0,1,1.866-3.016l4.087-1.945a3.925,3.925,0,0,0,.913-.755,9.2,9.2,0,0,1-.833-8.454,4.5,4.5,0,0,0-2.263-.715Zm18.257,0a4.336,4.336,0,0,0-2.341.793,9.272,9.272,0,0,1-.794,8.3,4.2,4.2,0,0,0,1.073.913l3.929,1.866A3.39,3.39,0,0,1,30.8,22.844v5.121h4.207A1.094,1.094,0,0,0,36,26.773V21.931a1.135,1.135,0,0,0-.635-1.111l-6.073-2.9a5.815,5.815,0,0,0,2.381-4.684,5.967,5.967,0,0,0-1.33-3.731,4.427,4.427,0,0,0-3.235-1.548Z" transform="translate(0 -5.655)" fill="#707070"/>
</svg>
