<svg xmlns="http://www.w3.org/2000/svg" width="33.753" height="31.034" viewBox="0 0 33.753 31.034">
  <g id="house" transform="translate(-1.123 -2.716)">
    <path id="Path_13" data-name="Path 13" d="M4.5,30.375V15.75H6.75V30.375A1.125,1.125,0,0,0,7.875,31.5h20.25a1.125,1.125,0,0,0,1.125-1.125V15.75H31.5V30.375a3.375,3.375,0,0,1-3.375,3.375H7.875A3.375,3.375,0,0,1,4.5,30.375ZM29.25,5.625V13.5L24.75,9V5.625A1.125,1.125,0,0,1,25.875,4.5h2.25A1.125,1.125,0,0,1,29.25,5.625Z" fill="#fff" fill-rule="evenodd"/>
    <path id="Path_14" data-name="Path 14" d="M16.409,3.375a2.25,2.25,0,0,1,3.181,0L34.546,18.329a1.126,1.126,0,1,1-1.593,1.593L18,4.966,3.046,19.921a1.126,1.126,0,0,1-1.593-1.593Z" fill="#fff" fill-rule="evenodd"/>
  </g>
</svg>
