<svg xmlns="http://www.w3.org/2000/svg" width="52" height="51.952" viewBox="0 0 52 51.952">
  <path id="house" d="M51.01,28.209a3.253,3.253,0,0,1-2.387.99,3.13,3.13,0,0,1-2.361-1.015l-.762-.711V48.7h4.875a1.625,1.625,0,0,1,0,3.25H1.676a1.564,1.564,0,0,1-1.143-.482,1.6,1.6,0,0,1,0-2.287A1.565,1.565,0,0,1,1.676,48.7H6.5V27.473l-.762.711A3.131,3.131,0,0,1,3.377,29.2,3.255,3.255,0,0,1,.99,28.21a3.373,3.373,0,0,1-.025-4.749L23.512.965A3.215,3.215,0,0,1,26,0a3.213,3.213,0,0,1,2.488.965l22.5,22.5A3.131,3.131,0,0,1,52,25.822,3.255,3.255,0,0,1,51.01,28.209ZM22.75,34.074a1.646,1.646,0,0,0-1.625-1.625h-6.5A1.646,1.646,0,0,0,13,34.074V48.7h9.75Zm16.25,0a1.646,1.646,0,0,0-1.625-1.625h-6.5a1.646,1.646,0,0,0-1.625,1.625v6.5A1.646,1.646,0,0,0,30.875,42.2h6.5A1.646,1.646,0,0,0,39,40.574Z" transform="translate(0 0.002)"/>
</svg>
