<svg xmlns="http://www.w3.org/2000/svg" width="52" height="52" viewBox="0 0 52 52">
  <path id="travel" d="M45.5,52H6.5a6.265,6.265,0,0,1-4.6-1.9A6.258,6.258,0,0,1,0,45.5v-26a6.265,6.265,0,0,1,1.9-4.6A6.258,6.258,0,0,1,6.5,13H13V8.125a7.483,7.483,0,0,1,2.59-5.789A8.149,8.149,0,0,1,21.125,0h9.75A8.149,8.149,0,0,1,36.41,2.336,7.483,7.483,0,0,1,39,8.125V13h6.5A6.5,6.5,0,0,1,52,19.5v26A6.5,6.5,0,0,1,45.5,52ZM14.625,22.75a4.883,4.883,0,0,0-3.453,8.328A4.7,4.7,0,0,0,14.625,32.5a4.883,4.883,0,0,0,3.453-8.328,4.7,4.7,0,0,0-3.453-1.422ZM32.5,9.75A3.207,3.207,0,0,0,29.25,6.5h-6.5a3.166,3.166,0,0,0-2.285.939A3.1,3.1,0,0,0,19.5,9.75V13h13ZM42.25,32.5l-13,3.25L32.5,45.5l13-3.25Z"/>
</svg>
