<svg xmlns="http://www.w3.org/2000/svg" xmlns:xlink="http://www.w3.org/1999/xlink" width="111" height="24" viewBox="0 0 111 24">
  <defs>
    <clipPath id="clip-path">
      <rect id="Rectangle_19" data-name="Rectangle 19" width="23" height="23" rx="11.5" transform="translate(1121 36)" fill="none" stroke="#8857f2" stroke-width="2"/>
    </clipPath>
    <clipPath id="clip-path-2">
      <rect id="Rectangle_25" data-name="Rectangle 25" width="24" height="24" rx="12" transform="translate(1217 30)" fill="none" stroke="#8857f2" stroke-width="2"/>
    </clipPath>
    <clipPath id="clip-path-3">
      <rect id="Rectangle_26" data-name="Rectangle 26" width="24" height="24" transform="translate(1169 30)" fill="none" stroke="#8857f2" stroke-width="2"/>
    </clipPath>
  </defs>
  <g id="Group_21" data-name="Group 21" transform="translate(-1130 -38)">
    <g id="Mask_Group_3" data-name="Mask Group 3" transform="translate(9 3)" clip-path="url(#clip-path)">
      <path id="__TEMP__SVG__" d="M23.419,3.643q.275.766-1.8,3.52-.288.383-.778,1.018-.479.611-.658.862a5.859,5.859,0,0,0-.366.593.783.783,0,0,0-.143.5,2.828,2.828,0,0,0,.156.413,1.7,1.7,0,0,0,.389.515q.276.264.682.634a.128.128,0,0,1,.06.048A11.942,11.942,0,0,1,23.252,14.4q.036.06.078.15a1.459,1.459,0,0,1,.084.317.933.933,0,0,1-.006.407.589.589,0,0,1-.3.329,1.4,1.4,0,0,1-.706.15l-3.065.048a1.346,1.346,0,0,1-.671-.06,2.892,2.892,0,0,1-.623-.264l-.24-.143a5.616,5.616,0,0,1-.838-.766q-.479-.515-.82-.928a3.964,3.964,0,0,0-.73-.695.759.759,0,0,0-.677-.186.738.738,0,0,0-.1.042,1.06,1.06,0,0,0-.2.173,1.513,1.513,0,0,0-.258.353,2.45,2.45,0,0,0-.2.623,3.96,3.96,0,0,0-.078.928,1.208,1.208,0,0,1-.042.329.83.83,0,0,1-.09.221l-.048.06a.954.954,0,0,1-.634.264H11.708a5.443,5.443,0,0,1-1.749-.2,6.674,6.674,0,0,1-1.575-.634,14.472,14.472,0,0,1-1.234-.79,6.9,6.9,0,0,1-.844-.69l-.3-.288q-.119-.119-.329-.359T4.822,11.7q-.647-.85-1.269-1.808T2.086,7.367Q1.242,5.8.523,4.109a.952.952,0,0,1-.072-.323.389.389,0,0,1,.036-.192l.048-.072A.835.835,0,0,1,1.217,3.3L4.5,3.271a1.286,1.286,0,0,1,.275.078.8.8,0,0,1,.192.1l.06.036a.792.792,0,0,1,.288.383q.24.6.551,1.239t.491.976l.192.347q.347.719.671,1.245a6.19,6.19,0,0,0,.58.82,2.811,2.811,0,0,0,.5.461.768.768,0,0,0,.407.168.906.906,0,0,0,.323-.06.2.2,0,0,0,.06-.06,2.44,2.44,0,0,0,.143-.264,1.939,1.939,0,0,0,.162-.563q.054-.347.114-.97a9.323,9.323,0,0,0,0-1.5A5.567,5.567,0,0,0,9.4,4.84a2.3,2.3,0,0,0-.168-.551l-.072-.143a1.469,1.469,0,0,0-1.018-.515q-.156-.024.06-.288a1.42,1.42,0,0,1,.455-.359A7.847,7.847,0,0,1,11.516,2.7a7.926,7.926,0,0,1,1.617.156,1.374,1.374,0,0,1,.4.162.643.643,0,0,1,.245.288,1.891,1.891,0,0,1,.126.383,2.739,2.739,0,0,1,.042.545q0,.347-.012.658t-.03.844q-.018.533-.018.988,0,.132-.012.5T13.87,7.8q.006.2.042.485a1.325,1.325,0,0,0,.138.467.8.8,0,0,0,.268.293l.2.048q.108.024.312-.132a4.349,4.349,0,0,0,.455-.413,6.177,6.177,0,0,0,.623-.8q.371-.545.814-1.288a19.469,19.469,0,0,0,1.281-2.695.841.841,0,0,1,.119-.21.518.518,0,0,1,.132-.126l.048-.036.06-.03.156-.036.24-.006,3.448-.024a1.886,1.886,0,0,1,.766.03.7.7,0,0,1,.371.2Z" transform="translate(1120.549 38.244)"/>
    </g>
    <g id="Mask_Group_1" data-name="Mask Group 1" transform="translate(0 8)" clip-path="url(#clip-path-2)">
      <path id="__TEMP__SVG__2" data-name="__TEMP__SVG__" d="M12,0A12,12,0,1,0,24,12,12,12,0,0,0,12,0Zm0,1.307A10.693,10.693,0,1,1,1.307,12,10.693,10.693,0,0,1,12,1.307ZM6.693,4.439a4.308,4.308,0,0,0-.138,2.685,4.009,4.009,0,0,0-.767,1.26,5.031,5.031,0,0,0,.7,4.7A4.2,4.2,0,0,0,8.009,14.1a8.067,8.067,0,0,0,2.468.507c-.675.315-1.151.508-1.317,1.205a1.925,1.925,0,0,1-2.332-.164c-.525-.383-.762-1.063-1.343-1.315a.7.7,0,0,0-.343-.082.5.5,0,0,0-.453.164c-.055.055-.051.113.013.177a4.321,4.321,0,0,1,1.112,1.193,3.473,3.473,0,0,0,.74,1.083,2.839,2.839,0,0,0,2.5.425c-.1.587.165,1.5-.028,2.027a1.157,1.157,0,0,1-.315.384c-.122.119-.5.269-.425.451.037.082.165.133.384.151a1.593,1.593,0,0,0,1.248-.589.88.88,0,0,0,.151-.535V16.932a.757.757,0,0,1,.164-.548.835.835,0,0,1,.357-.22v2.959a2.762,2.762,0,0,1-.069.658,2.126,2.126,0,0,1-.123.384c-.084.141-.245.271-.247.438,0,.055.033.086.1.1a1.52,1.52,0,0,0,1.233-.7,2.4,2.4,0,0,0,.233-1.04v-2.9h.6v2.9A2.29,2.29,0,0,0,12.562,20a1.175,1.175,0,0,0,.823.631,1.286,1.286,0,0,0,.41.067c.073-.009.106-.041.1-.1a1.305,1.305,0,0,0-.233-.438,1.877,1.877,0,0,1-.192-1.041V16.165a.923.923,0,0,1,.371.22.718.718,0,0,1,.177.548v2.245a.88.88,0,0,0,.151.535,1.575,1.575,0,0,0,1.248.589c.219-.018.347-.069.384-.151s.009-.15-.082-.205a3.431,3.431,0,0,1-.343-.246,1.135,1.135,0,0,1-.315-.384c-.082-.942,0-1.952-.069-2.9a1.964,1.964,0,0,0-1.33-1.78,7.141,7.141,0,0,0,2.345-.521c1.831-.89,2.337-2.265,2.345-4.109A4.272,4.272,0,0,0,17.2,6.986a3.685,3.685,0,0,0,.1-1.314,4.516,4.516,0,0,0-.289-1.233,4.164,4.164,0,0,0-1.7.41,6.133,6.133,0,0,0-.987.6,10.281,10.281,0,0,0-4.909.054A4.8,4.8,0,0,0,6.693,4.438Z" transform="translate(1217 30)"/>
    </g>
    <g id="Mask_Group_2" data-name="Mask Group 2" transform="translate(4 8)" clip-path="url(#clip-path-3)">
      <path id="__TEMP__SVG__3" data-name="__TEMP__SVG__" d="M26.377,7.339l-21.259,8.2c-1.451.583-1.442,1.393-.266,1.753l5.458,1.7,12.629-7.967c.6-.364,1.142-.168.694.23L13.4,20.489h0l0,0-.377,5.626a1.42,1.42,0,0,0,1.1-.552l2.651-2.578,5.515,4.073c1.017.56,1.747.273,2-.941l3.62-17.06c.371-1.486-.568-2.158-1.537-1.719Z" transform="translate(1165.003 24.729)"/>
    </g>
  </g>
</svg>
