<svg xmlns="http://www.w3.org/2000/svg" xmlns:xlink="http://www.w3.org/1999/xlink" width="24" height="24" viewBox="0 0 24 24">
  <defs>
    <clipPath id="clip-path">
      <rect id="Rectangle_25" data-name="Rectangle 25" width="24" height="24" rx="12" transform="translate(1217 30)" fill="none" stroke="#8857f2" stroke-width="2"/>
    </clipPath>
  </defs>
  <g id="Mask_Group_1" data-name="Mask Group 1" transform="translate(-1217 -30)" clip-path="url(#clip-path)">
    <path id="__TEMP__SVG__" d="M12,0A12,12,0,1,0,24,12,12,12,0,0,0,12,0Zm0,1.307A10.693,10.693,0,1,1,1.307,12,10.693,10.693,0,0,1,12,1.307ZM6.693,4.439a4.308,4.308,0,0,0-.138,2.685,4.009,4.009,0,0,0-.767,1.26,5.031,5.031,0,0,0,.7,4.7A4.2,4.2,0,0,0,8.009,14.1a8.067,8.067,0,0,0,2.468.507c-.675.315-1.151.508-1.317,1.205a1.925,1.925,0,0,1-2.332-.164c-.525-.383-.762-1.063-1.343-1.315a.7.7,0,0,0-.343-.082.5.5,0,0,0-.453.164c-.055.055-.051.113.013.177a4.321,4.321,0,0,1,1.112,1.193,3.473,3.473,0,0,0,.74,1.083,2.839,2.839,0,0,0,2.5.425c-.1.587.165,1.5-.028,2.027a1.157,1.157,0,0,1-.315.384c-.122.119-.5.269-.425.451.037.082.165.133.384.151a1.593,1.593,0,0,0,1.248-.589.88.88,0,0,0,.151-.535V16.932a.757.757,0,0,1,.164-.548.835.835,0,0,1,.357-.22v2.959a2.762,2.762,0,0,1-.069.658,2.126,2.126,0,0,1-.123.384c-.084.141-.245.271-.247.438,0,.055.033.086.1.1a1.52,1.52,0,0,0,1.233-.7,2.4,2.4,0,0,0,.233-1.04v-2.9h.6v2.9A2.29,2.29,0,0,0,12.562,20a1.175,1.175,0,0,0,.823.631,1.286,1.286,0,0,0,.41.067c.073-.009.106-.041.1-.1a1.305,1.305,0,0,0-.233-.438,1.877,1.877,0,0,1-.192-1.041V16.165a.923.923,0,0,1,.371.22.718.718,0,0,1,.177.548v2.245a.88.88,0,0,0,.151.535,1.575,1.575,0,0,0,1.248.589c.219-.018.347-.069.384-.151s.009-.15-.082-.205a3.431,3.431,0,0,1-.343-.246,1.135,1.135,0,0,1-.315-.384c-.082-.942,0-1.952-.069-2.9a1.964,1.964,0,0,0-1.33-1.78,7.141,7.141,0,0,0,2.345-.521c1.831-.89,2.337-2.265,2.345-4.109A4.272,4.272,0,0,0,17.2,6.986a3.685,3.685,0,0,0,.1-1.314,4.516,4.516,0,0,0-.289-1.233,4.164,4.164,0,0,0-1.7.41,6.133,6.133,0,0,0-.987.6,10.281,10.281,0,0,0-4.909.054A4.8,4.8,0,0,0,6.693,4.438Z" transform="translate(1217 30)"/>
  </g>
</svg>
