<svg xmlns="http://www.w3.org/2000/svg" xmlns:xlink="http://www.w3.org/1999/xlink" width="23" height="23" viewBox="0 0 23 23">
  <defs>
    <clipPath id="clip-path">
      <rect id="Rectangle_19" data-name="Rectangle 19" width="23" height="23" rx="11.5" transform="translate(1121 36)" fill="none" stroke="#8857f2" stroke-width="2"/>
    </clipPath>
  </defs>
  <g id="Mask_Group_3" data-name="Mask Group 3" transform="translate(-1121 -36)" clip-path="url(#clip-path)">
    <path id="__TEMP__SVG__" d="M23.419,3.643q.275.766-1.8,3.52-.288.383-.778,1.018-.479.611-.658.862a5.859,5.859,0,0,0-.366.593.783.783,0,0,0-.143.5,2.828,2.828,0,0,0,.156.413,1.7,1.7,0,0,0,.389.515q.276.264.682.634a.128.128,0,0,1,.06.048A11.942,11.942,0,0,1,23.252,14.4q.036.06.078.15a1.459,1.459,0,0,1,.084.317.933.933,0,0,1-.006.407.589.589,0,0,1-.3.329,1.4,1.4,0,0,1-.706.15l-3.065.048a1.346,1.346,0,0,1-.671-.06,2.892,2.892,0,0,1-.623-.264l-.24-.143a5.616,5.616,0,0,1-.838-.766q-.479-.515-.82-.928a3.964,3.964,0,0,0-.73-.695.759.759,0,0,0-.677-.186.738.738,0,0,0-.1.042,1.06,1.06,0,0,0-.2.173,1.513,1.513,0,0,0-.258.353,2.45,2.45,0,0,0-.2.623,3.96,3.96,0,0,0-.078.928,1.208,1.208,0,0,1-.042.329.83.83,0,0,1-.09.221l-.048.06a.954.954,0,0,1-.634.264H11.708a5.443,5.443,0,0,1-1.749-.2,6.674,6.674,0,0,1-1.575-.634,14.472,14.472,0,0,1-1.234-.79,6.9,6.9,0,0,1-.844-.69l-.3-.288q-.119-.119-.329-.359T4.822,11.7q-.647-.85-1.269-1.808T2.086,7.367Q1.242,5.8.523,4.109a.952.952,0,0,1-.072-.323.389.389,0,0,1,.036-.192l.048-.072A.835.835,0,0,1,1.217,3.3L4.5,3.271a1.286,1.286,0,0,1,.275.078.8.8,0,0,1,.192.1l.06.036a.792.792,0,0,1,.288.383q.24.6.551,1.239t.491.976l.192.347q.347.719.671,1.245a6.19,6.19,0,0,0,.58.82,2.811,2.811,0,0,0,.5.461.768.768,0,0,0,.407.168.906.906,0,0,0,.323-.06.2.2,0,0,0,.06-.06,2.44,2.44,0,0,0,.143-.264,1.939,1.939,0,0,0,.162-.563q.054-.347.114-.97a9.323,9.323,0,0,0,0-1.5A5.567,5.567,0,0,0,9.4,4.84a2.3,2.3,0,0,0-.168-.551l-.072-.143a1.469,1.469,0,0,0-1.018-.515q-.156-.024.06-.288a1.42,1.42,0,0,1,.455-.359A7.847,7.847,0,0,1,11.516,2.7a7.926,7.926,0,0,1,1.617.156,1.374,1.374,0,0,1,.4.162.643.643,0,0,1,.245.288,1.891,1.891,0,0,1,.126.383,2.739,2.739,0,0,1,.042.545q0,.347-.012.658t-.03.844q-.018.533-.018.988,0,.132-.012.5T13.87,7.8q.006.2.042.485a1.325,1.325,0,0,0,.138.467.8.8,0,0,0,.268.293l.2.048q.108.024.312-.132a4.349,4.349,0,0,0,.455-.413,6.177,6.177,0,0,0,.623-.8q.371-.545.814-1.288a19.469,19.469,0,0,0,1.281-2.695.841.841,0,0,1,.119-.21.518.518,0,0,1,.132-.126l.048-.036.06-.03.156-.036.24-.006,3.448-.024a1.886,1.886,0,0,1,.766.03.7.7,0,0,1,.371.2Z" transform="translate(1120.549 38.244)"/>
  </g>
</svg>
